<svg style="transform: scale(0.6);" color-interpolation-filters="sRGB" preserveAspectRatio="xMidYMid meet" xmlns:xlink="http://www.w3.org/1999/xlink" xmlns="http://www.w3.org/2000/svg" version="1.0" data-v-9dd04b2c="" width="250px" height="60px">  <g fill="#FED136" class="icon-text-wrapper icon-svg-group iconsvg" transform=""><g class="iconsvg-imagesvg" transform="translate(0,0)"><rect fill="#FED136" fill-opacity="0" stroke-width="2" x="0" y="0" width="60" height="59.997955358664" class="image-rect"></rect> <svg filter="url(#colors5999467259)" x="0" y="0" width="60" height="59.997955358664" filtersec="colorsf3167170021" class="image-svg-svg"><svg xmlns="http://www.w3.org/2000/svg" viewBox="0 0 293.45 293.44"><g><g fill="#FED136"><path d="M239.73 191.24v-.36a1.67 1.67 0 0 0-.06-.29 1.71 1.71 0 0 0-.09-.3 2.88 2.88 0 0 0-.13-.31.84.84 0 0 0-.06-.14l-27.84-51V93.45a23.74 23.74 0 1 0-47.48 0V146l-17.31 37.66L129.41 146V93.45a23.74 23.74 0 1 0-47.47 0v45.39l-27.85 51a.59.59 0 0 1-.09.16c0 .1-.09.2-.13.31a2.8 2.8 0 0 0-.09.31l-.06.28v.99c0 .12 0 .19.06.29a1.71 1.71 0 0 0 .09.3c0 .09.07.19.12.28a2.44 2.44 0 0 0 .14.28l.17.25a2.31 2.31 0 0 0 .2.24 2.39 2.39 0 0 0 .22.23l.22.19.29.19.12.08.13.06a1.89 1.89 0 0 0 .33.13 1.52 1.52 0 0 0 .28.09 1.55 1.55 0 0 0 .31.06 2 2 0 0 0 .34 0H64.59a23.77 23.77 0 0 0 23.74-23.74v-30.34l17.07-31.26 17.6 38.2V200a23.74 23.74 0 0 0 47.48 0v-52.58l17.52-38.2 17.06 31.26v30.38a23.77 23.77 0 0 0 23.74 23.74h7.76a2.93 2.93 0 0 0 .67-.08 1.52 1.52 0 0 1 .2-.06 3.22 3.22 0 0 0 .51-.21h.11l.11-.08a2.9 2.9 0 0 0 .29-.19l.23-.19a2.39 2.39 0 0 0 .22-.23l.2-.24c.06-.08.11-.17.16-.25l.15-.28c0-.09.08-.19.11-.28s.07-.2.1-.3 0-.2.05-.29 0-.24 0-.35v-.14c0-.05.06-.14.06-.19zM81.94 170.86a17.34 17.34 0 0 1-17.32 17.31h-2.29l19.61-35.91zm23.85-72a3.26 3.26 0 0 0-2.94 1.68l-14.49 26.52V93.45a17.31 17.31 0 1 1 34.62 0V132l-14.38-31.29a3.25 3.25 0 0 0-2.81-1.87zM164 200a17.31 17.31 0 0 1-34.62 0v-38.59l14.39 31.31a3.21 3.21 0 0 0 5.84 0L164 161.41zm26.56-99.48a3.21 3.21 0 0 0-5.74.19L170.46 132V93.45a17.31 17.31 0 1 1 34.62 0v33.61zm20.92 70.34v-18.6l19.6 35.91h-2.29a17.34 17.34 0 0 1-17.28-17.31z"></path><path d="M250.47 43c-1.35-1.36-2.76-2.65-4.18-3.92a146.43 146.43 0 0 0-199.14 0C45.73 40.33 44.33 41.62 43 43s-2.72 2.83-4 4.29A146.43 146.43 0 0 0 38.76 246c1.35 1.54 2.75 3 4.21 4.51s2.85 2.74 4.32 4a146.44 146.44 0 0 0 198.84 0c1.48-1.31 2.94-2.65 4.35-4.06s2.87-3 4.22-4.52a146.42 146.42 0 0 0-.23-198.7 93.275 93.275 0 0 0-4-4.23zm14.41 102.48a3.24 3.24 0 0 0 0 2.52 88.68 88.68 0 0 1-15 93.75c-2.55 2.77-5.22 5.43-8 8A88.39 88.39 0 0 1 183 272a88.65 88.65 0 0 1-35-7.12 3.3 3.3 0 0 0-2.52 0 89.16 89.16 0 0 1-93.9-15.18q-4.14-3.82-8-8a88.66 88.66 0 0 1-15-93.76 3.24 3.24 0 0 0 0-2.52 88.64 88.64 0 0 1 15.26-94q3.65-3.94 7.59-7.6a89.17 89.17 0 0 1 94.05-15.31 3.24 3.24 0 0 0 2.52 0 89.19 89.19 0 0 1 94 15.29q4 3.68 7.63 7.64a88.65 88.65 0 0 1 15.25 94.02zM146.72 6.43a139.62 139.62 0 0 1 51.6 9.83A96.78 96.78 0 0 0 183 15a95.24 95.24 0 0 0-36.23 7.1 95.31 95.31 0 0 0-36.28-7.1 96.56 96.56 0 0 0-15.36 1.24 139.61 139.61 0 0 1 51.59-9.81zM6.43 146.72a139.75 139.75 0 0 1 9.66-51.18 95.46 95.46 0 0 0 6 51.18 95.38 95.38 0 0 0-6 51.18 139.51 139.51 0 0 1-9.66-51.18zM146.72 287a139.59 139.59 0 0 1-51.55-9.81 97.2 97.2 0 0 0 15.31 1.23 95.32 95.32 0 0 0 36.24-7.1 95.24 95.24 0 0 0 36.23 7.1 97.33 97.33 0 0 0 15.32-1.23 139.6 139.6 0 0 1-51.55 9.81zM287 146.72a139.42 139.42 0 0 1-9.68 51.2 95.43 95.43 0 0 0-6-51.2 95.4 95.4 0 0 0 6-51.19 139.6 139.6 0 0 1 9.68 51.19z"></path></g></g></svg></svg> <defs><filter id="colors5999467259"><feColorMatrix type="matrix" values="0 0 0 0 0.9921875  0 0 0 0 0.81640625  0 0 0 0 0.2109375  0 0 0 1 0" class="icon-fecolormatrix"></feColorMatrix></filter> <filter id="colorsf3167170021"><feColorMatrix type="matrix" values="0 0 0 0 0.99609375  0 0 0 0 0.99609375  0 0 0 0 0.99609375  0 0 0 1 0" class="icon-fecolormatrix"></feColorMatrix></filter> <filter id="colorsb797560051"><feColorMatrix type="matrix" values="0 0 0 0 0  0 0 0 0 0  0 0 0 0 0  0 0 0 1 0" class="icon-fecolormatrix"></feColorMatrix></filter></defs></g> <g transform="translate(67,3.1848182678222656)"><g class="tp-name iconsvg-namesvg" transform="translate(0,0)"><g><path d="M40.11-6.58L40.11-5.83L23.93-5.83Q27.41-0.48 40.84 3.15L40.84 3.15L40.84 3.90Q26.27 1.87 21.21-3.82L21.21-3.82Q16.15 1.87 1.62 3.90L1.62 3.90L1.62 3.15Q15.00-0.48 18.49-5.83L18.49-5.83L2.34-5.83L2.34-6.58L18.86-6.58Q19.30-7.39 19.30-8.11L19.30-8.11L19.30-10.38L10.06-10.38L6.25-9.61L6.25-23.20L10.06-22.47L32.39-22.47L36.21-23.20L36.21-9.61L32.39-10.38L23.16-10.38L23.16-8.88Q23.16-7.62 22.79-6.58L22.79-6.58L40.11-6.58ZM32.39-21.67L10.06-21.67L10.06-16.79L32.39-16.79L32.39-21.67ZM10.06-11.14L32.39-11.14L32.39-16.02L10.06-16.02L10.06-11.14ZM11.60-29.24L11.60-33.78L15.42-33.02L15.42-29.24L27.04-29.24L27.04-33.78L30.86-33.02L30.86-29.24L40.84-29.24L40.84-28.47L30.86-28.47L30.86-24.74L27.04-23.97L27.04-28.47L15.42-28.47L15.42-24.74L11.60-23.97L11.60-28.47L1.62-28.47L1.62-29.24L11.60-29.24ZM76.45-11.14L80.29-11.85L80.29 3.15L76.45 2.39L63.38 2.39L59.50 3.15L59.50-9.65Q55.84-5.15 53.33-2.08L53.33-2.08L53.33-2.80Q59.37-12.49 62.69-17.93L62.69-17.93L54.87-17.93L54.87-18.66L63.15-18.66Q64.97-21.67 66.43-23.97L66.43-23.97L70.25-23.20Q69.44-22.14 67.80-20.11L67.80-20.11Q67.03-19.13 66.63-18.66L66.63-18.66L83.34-18.66L83.34-17.93L66.05-17.93Q64.85-16.46 62.69-13.74L62.69-13.74Q61.55-12.24 60.99-11.56L60.99-11.56L63.38-11.14L76.45-11.14ZM76.45-10.38L63.38-10.38L63.38 1.66L76.45 1.66L76.45-10.38ZM73.36-28.87L73.36-33.78L77.18-33.02L77.18-28.87L83.34-28.87L83.34-28.14L77.18-28.14L77.18-23.97L73.36-23.20L73.36-28.14L64.89-28.14L64.89-23.97L61.03-23.20L61.03-28.14L54.87-28.14L54.87-28.87L61.03-28.87L61.03-33.78L64.89-33.02L64.89-28.87L73.36-28.87ZM48.75-20.92L52.56-21.67L52.56-1.31L57.21-2.20L57.21-1.45L52.56-0.56L48.75 0.12L48.75-20.19L44.12-20.19L44.12-20.92L48.75-20.92ZM53.33-24.74L53.33-24.74L52.56-24.74Q50.49-27.93 47.17-33.02L47.17-33.02L51.05-33.78Q52.15-29.32 53.33-24.74ZM125.11-18.66L125.11-17.93L115.51-17.93Q118.14-13.47 125.84-0.56L125.84-0.56L125.84 0.12Q125.38-0.42 124.01-2.08L124.01-2.08Q116.88-10.87 111.23-17.93L111.23-17.93L108.16-17.93L108.16-5.06L119.68-5.06L119.68-4.34L108.16-4.34L108.16 3.15L104.30 3.90L104.30-4.34L92.78-4.34L92.78-5.06L104.30-5.06L104.30-17.93L101.23-17.93Q100.25-16.71 98.43-14.40L98.43-14.40Q88.74-2.39 86.62 0.12L86.62 0.12L86.62-0.56Q88.44-3.61 91.37-8.59L91.37-8.59Q96.35-16.91 96.93-17.93L96.93-17.93L87.34-17.93L87.34-18.66L104.30-18.66L104.30-24.74L108.16-23.97L108.16-18.66L125.11-18.66ZM96.60-28.47L96.60-33.78L100.42-33.02L100.42-28.47L112.04-28.47L112.04-33.78L115.86-33.02L115.86-28.47L125.84-28.47L125.84-27.70L115.86-27.70L115.86-23.20L112.04-22.47L112.04-27.70L100.42-27.70L100.42-23.20L96.60-22.47L96.60-27.70L86.62-27.70L86.62-28.47L96.60-28.47ZM167.61-13.39L167.61-12.62L150.66-12.62L150.66-5.83Q150.49 3.01 141.40 3.90L141.40 3.90L141.40 3.15Q146.28 1.02 146.80-4.34L146.80-4.34L146.80-12.62L129.84-12.62L129.84-13.39L167.61-13.39ZM162.99-29.24L166.80-30.01L166.80-23.20L162.99-22.47L162.99-28.47L134.47-28.47L134.47-23.20L130.65-22.47L130.65-30.01L134.47-29.24L146.80-29.24L146.80-33.78L150.66-33.02L150.66-29.24L162.99-29.24ZM137.56-9.61L137.56-9.61L141.40-8.88Q135.57-3.11 129.84 2.39L129.84 2.39L129.84 1.66Q134.27-4.71 137.56-9.61ZM156.05-8.88L159.89-9.61Q163.19-4.71 167.61 1.66L167.61 1.66L167.61 2.39Q161.89-3.11 156.05-8.88L156.05-8.88ZM162.18-21.67L162.18-20.92L135.28-20.92L135.28-21.67L162.18-21.67Z" transform="translate(-1.61865234375, 33.7841796875)"></path></g> <!----> <!----> <!----> <!----> <!----> <!----> <g fill="#FED136" transform="translate(168.99000549316406,0)"></g></g> <g class="tp-slogan iconsvg-slogansvg" fill="#FED136" transform="translate(0.00000762939453125,44.68000030517578)"><!----> <rect x="0" height="1" y="3.9750003814697266" width="23.084999084472656"></rect> <rect height="1" y="3.9750003814697266" width="23.084999084472656" x="142.9050064086914"></rect> <g transform="translate(26.084999084472656,0)"><path d="M9.14-8.58L9.14 0L8.02 0L8.02-5.06Q8.02-5.77 8.02-7.22L8.02-7.22L5.58 0L4.41 0L2.02-7.22L1.97-7.22Q1.97-6.70 2.02-5.67L2.02-5.67Q2.02-5.16 2.02-5.06L2.02-5.06L2.02 0L0.84 0L0.84-8.58L2.53-8.58L5.02-1.31L7.45-8.58L9.14-8.58ZM17.63-4.27L17.63-4.27Q17.44-7.64 14.63-7.83L14.63-7.83Q11.77-7.69 11.63-4.27L11.63-4.27Q11.77-0.94 14.63-0.80L14.63-0.80Q17.44-0.98 17.63-4.27ZM18.80-4.27L18.80-4.27Q18.52 0 14.63 0.14L14.63 0.14Q10.69 0 10.41-4.27L10.41-4.27Q10.64-8.72 14.63-8.81L14.63-8.81Q18.52-8.67 18.80-4.27ZM21.56-8.58L25.88-1.64L25.88-8.58L27-8.58L27 0L25.69 0L21.33-6.94L21.28-6.94L21.28 0L20.16 0L20.16-8.58L21.56-8.58ZM35.58-4.27L35.58-4.27Q35.39-7.64 32.58-7.83L32.58-7.83Q29.72-7.69 29.58-4.27L29.58-4.27Q29.72-0.94 32.58-0.80L32.58-0.80Q35.39-0.98 35.58-4.27ZM36.75-4.27L36.75-4.27Q36.47 0 32.58 0.14L32.58 0.14Q28.64 0 28.36-4.27L28.36-4.27Q28.59-8.72 32.58-8.81L32.58-8.81Q36.47-8.67 36.75-4.27ZM41.34-7.64L39.28-7.64L39.28-4.97L41.34-4.97Q43.17-4.92 43.13-6.38L43.13-6.38Q43.13-7.64 41.34-7.64L41.34-7.64ZM41.81 0L38.11 0L38.11-8.58L41.91-8.58Q44.20-8.48 44.30-6.42L44.30-6.42Q44.30-5.16 43.17-4.64L43.17-4.64Q44.77-4.08 44.77-2.53L44.77-2.53Q44.63-0.09 41.81 0L41.81 0ZM41.53-3.98L39.28-3.98L39.28-0.98L41.77-0.98Q43.55-1.03 43.59-2.53L43.59-2.53Q43.59-3.98 41.53-3.98L41.53-3.98ZM47.39-1.03L52.55-1.03L52.55 0L46.22 0L46.22-8.58L52.45-8.58L52.45-7.59L47.39-7.59L47.39-4.92L52.08-4.92L52.08-3.89L47.39-3.89L47.39-1.03ZM55.45-8.58L59.77-1.64L59.77-8.58L60.89-8.58L60.89 0L59.58 0L55.22-6.94L55.17-6.94L55.17 0L54.05 0L54.05-8.58L55.45-8.58ZM63.52-1.03L68.81-1.03L68.81 0L62.06 0L62.06-0.94L67.31-7.59L62.44-7.59L62.44-8.58L68.81-8.58L68.81-7.59L63.52-1.03ZM76.73-4.27L76.73-4.27Q76.55-7.64 73.73-7.83L73.73-7.83Q70.88-7.69 70.73-4.27L70.73-4.27Q70.88-0.94 73.73-0.80L73.73-0.80Q76.55-0.98 76.73-4.27ZM77.91-4.27L77.91-4.27Q77.63 0 73.73 0.14L73.73 0.14Q69.80 0 69.52-4.27L69.52-4.27Q69.75-8.72 73.73-8.81L73.73-8.81Q77.63-8.67 77.91-4.27ZM80.67-8.58L84.98-1.64L84.98-8.58L86.11-8.58L86.11 0L84.80 0L80.44-6.94L80.39-6.94L80.39 0L79.27 0L79.27-8.58L80.67-8.58ZM89.20-1.03L94.36-1.03L94.36 0L88.03 0L88.03-8.58L94.27-8.58L94.27-7.59L89.20-7.59L89.20-4.92L93.89-4.92L93.89-3.89L89.20-3.89L89.20-1.03ZM96-1.27L97.27-1.27L97.27 0L96 0L96-1.27ZM106.36-6.05L106.36-6.05L105.23-6.05Q104.81-7.78 102.84-7.83L102.84-7.83Q100.13-7.69 100.03-4.36L100.03-4.36Q100.03-0.80 102.89-0.80L102.89-0.80Q104.86-0.84 105.33-3.19L105.33-3.19L106.45-3.19Q105.94 0.05 102.66 0.14L102.66 0.14Q98.91 0 98.81-4.31L98.81-4.31Q99-8.63 102.84-8.81L102.84-8.81Q105.89-8.72 106.36-6.05ZM109.22-8.58L113.53-1.64L113.53-8.58L114.66-8.58L114.66 0L113.34 0L108.98-6.94L108.94-6.94L108.94 0L107.81 0L107.81-8.58L109.22-8.58Z" transform="translate(-0.84375, 8.8125)"></path></g></g></g></g></svg>